<?xml version="1.0" encoding="utf-8"?>
<!-- Generator: Adobe Illustrator 19.2.1, SVG Export Plug-In . SVG Version: 6.00 Build 0)  -->
<svg version="1.1" id="Layer_1" xmlns="http://www.w3.org/2000/svg" xmlns:xlink="http://www.w3.org/1999/xlink" x="0px" y="0px"
   viewBox="0 0 223.2 69.5" style="enable-background:new 0 0 223.2 69.5;" xml:space="preserve">
<style type="text/css">
  .st0{fill:none;stroke:#333333;stroke-width:2;stroke-miterlimit:10;}
  .st1{fill:#333333;}
  .st2{fill:none;stroke:#FFFFFF;stroke-miterlimit:10;}
  .st3{fill:#FFFFFF;}
  .st4{display:none;}
  .st5{display:inline;}
  .st6{font-family:'AvenirNext-Bold';}
  .st7{font-size:23px;}
</style>
<symbol  id="Logo" viewBox="-67.5 -37.5 135 75">
  <g id="bar_20_">
    <line class="st0" x1="-67.5" y1="15" x2="67.5" y2="15"/>
    <g>
      <path class="st1" d="M65.5,28v-56h-131v56H65.5 M67.5,30h-135v-60h135V30L67.5,30z"/>
    </g>
    <line class="st0" x1="-67.5" y1="0" x2="67.5" y2="0"/>
    <line class="st0" x1="-67.5" y1="-15" x2="67.5" y2="-15"/>
    <rect x="61.5" y="-30" class="st1" width="6" height="60"/>
    <rect x="-67.5" y="-30" class="st1" width="6" height="60"/>
  </g>
  <g id="Layer_13_20_">
    <line class="st2" x1="-37.5" y1="30" x2="-7.5" y2="15"/>
    <line class="st2" x1="-7.5" y1="15" x2="-37.5" y2="0"/>
    <line class="st2" x1="-7.5" y1="-14.2" x2="-37.5" y2="0"/>
    <line class="st2" x1="-37.5" y1="-30" x2="-7.5" y2="-14.2"/>
    <line class="st2" x1="-7.5" y1="15" x2="-37.5" y2="-30"/>
    <line class="st2" x1="-7.5" y1="-14.2" x2="-37.5" y2="30"/>
    <line class="st2" x1="7.5" y1="15" x2="37.5" y2="30"/>
    <line class="st2" x1="37.5" y1="0" x2="7.5" y2="15"/>
    <line class="st2" x1="7.5" y1="-15" x2="37.5" y2="0"/>
    <line class="st2" x1="37.5" y1="-30" x2="7.5" y2="-15"/>
    <line class="st2" x1="7.5" y1="15" x2="37.5" y2="-30"/>
    <line class="st2" x1="7.5" y1="-15" x2="37.5" y2="30"/>
    <path class="st3" d="M-40,22.5H-50c-1.4,0-2.5,1.1-2.5,2.5V35c0,1.4,1.1,2.5,2.5,2.5h9.9c1.4,0,2.5-1.1,2.5-2.5V25
      C-37.5,23.6-38.6,22.5-40,22.5z"/>
    <path class="st3" d="M-40-7.5H-50c-1.4,0-2.5,1.1-2.5,2.5V5c0,1.4,1.1,2.5,2.5,2.5h9.9c1.4,0,2.5-1.1,2.5-2.5V-5
      C-37.5-6.4-38.6-7.5-40-7.5z"/>
    <path class="st3" d="M-40-37.5H-50c-1.4,0-2.5,1.1-2.5,2.5v9.9c0,1.4,1.1,2.5,2.5,2.5h9.9c1.4,0,2.5-1.1,2.5-2.5V-35
      C-37.5-36.4-38.6-37.5-40-37.5z"/>
    <path class="st3" d="M5,7.5H-5c-1.4,0-2.5,1.1-2.5,2.5V20c0,1.4,1.1,2.5,2.5,2.5H5c1.4,0,2.5-1.1,2.5-2.5V10
      C7.5,8.6,6.4,7.5,5,7.5z"/>
    <path class="st3" d="M5-22.5H-5c-1.4,0-2.5,1.1-2.5,2.5v9.9c0,1.4,1.1,2.5,2.5,2.5H5c1.4,0,2.5-1.1,2.5-2.5V-20
      C7.5-21.4,6.4-22.5,5-22.5z"/>
    <path class="st3" d="M50,22.5H40c-1.4,0-2.5,1.1-2.5,2.5V35c0,1.4,1.1,2.5,2.5,2.5H50c1.4,0,2.5-1.1,2.5-2.5V25
      C52.5,23.6,51.4,22.5,50,22.5z"/>
    <path class="st3" d="M50-7.5H40c-1.4,0-2.5,1.1-2.5,2.5V5c0,1.4,1.1,2.5,2.5,2.5H50c1.4,0,2.5-1.1,2.5-2.5V-5
      C52.5-6.4,51.4-7.5,50-7.5z"/>
    <path class="st3" d="M50-37.5H40c-1.4,0-2.5,1.1-2.5,2.5v9.9c0,1.4,1.1,2.5,2.5,2.5H50c1.4,0,2.5-1.1,2.5-2.5V-35
      C52.5-36.4,51.4-37.5,50-37.5z"/>
  </g>
</symbol>
<g>
  <g>
    <path class="st1" d="M139.9,29.5l-1.3-3.2h-6.3l-1.2,3.2h-4.3l6.8-16.3h3.8l6.8,16.3H139.9z M135.5,17.6l-2.1,5.6h4.1L135.5,17.6z
      "/>
    <path class="st1" d="M145.5,29.5V12.1h3.8v17.4H145.5z"/>
    <path class="st1" d="M164,28.4c0,1.1-0.2,2.1-0.5,2.9c-0.3,0.8-0.8,1.5-1.4,2.1c-0.6,0.5-1.3,1-2.1,1.2c-0.8,0.3-1.8,0.4-2.8,0.4
      s-2.1-0.2-3.1-0.5c-1.1-0.3-2-0.8-2.8-1.3l1.9-2.7c0.6,0.5,1.2,0.9,1.8,1.1s1.3,0.4,2,0.4c1.1,0,1.9-0.3,2.4-0.9
      c0.5-0.6,0.8-1.4,0.8-2.3v-0.7h-0.1c-0.4,0.5-0.8,0.8-1.4,1.1c-0.6,0.3-1.3,0.4-2,0.4c-0.9,0-1.6-0.2-2.3-0.5
      c-0.7-0.3-1.2-0.7-1.7-1.3s-0.8-1.2-1.1-1.9c-0.2-0.7-0.4-1.5-0.4-2.3s0.1-1.6,0.4-2.3s0.6-1.4,1.1-1.9c0.5-0.6,1-1,1.7-1.3
      c0.7-0.3,1.4-0.5,2.3-0.5c0.7,0,1.4,0.1,2.1,0.4c0.7,0.3,1.2,0.7,1.6,1.4h0V18h3.6V28.4z M160.4,23.7c0-0.4-0.1-0.8-0.2-1.1
      c-0.1-0.4-0.3-0.7-0.6-0.9c-0.2-0.3-0.5-0.5-0.9-0.6s-0.7-0.2-1.1-0.2c-0.4,0-0.8,0.1-1.1,0.2c-0.3,0.2-0.6,0.4-0.8,0.6
      c-0.2,0.3-0.4,0.6-0.5,0.9c-0.1,0.4-0.2,0.7-0.2,1.1c0,0.4,0.1,0.8,0.2,1.1c0.1,0.4,0.3,0.7,0.5,0.9c0.2,0.3,0.5,0.5,0.8,0.6
      c0.3,0.2,0.7,0.2,1.1,0.2c0.4,0,0.8-0.1,1.2-0.2c0.3-0.2,0.6-0.4,0.9-0.6c0.2-0.3,0.4-0.6,0.6-0.9
      C160.3,24.5,160.4,24.1,160.4,23.7z"/>
    <path class="st1" d="M178.2,23.7c0,0.9-0.2,1.8-0.5,2.5c-0.3,0.8-0.8,1.4-1.4,1.9c-0.6,0.5-1.3,0.9-2,1.2s-1.6,0.4-2.5,0.4
      c-0.9,0-1.7-0.1-2.4-0.4s-1.4-0.7-2-1.2c-0.6-0.5-1-1.2-1.4-1.9c-0.3-0.8-0.5-1.6-0.5-2.5c0-0.9,0.2-1.8,0.5-2.5
      c0.3-0.8,0.8-1.4,1.4-1.9c0.6-0.5,1.2-0.9,2-1.2c0.8-0.3,1.6-0.4,2.4-0.4c0.9,0,1.7,0.1,2.5,0.4c0.8,0.3,1.4,0.7,2,1.2
      c0.6,0.5,1,1.2,1.4,1.9C178,21.9,178.2,22.8,178.2,23.7z M174.5,23.7c0-0.4-0.1-0.7-0.2-1.1c-0.1-0.4-0.3-0.7-0.5-0.9
      c-0.2-0.3-0.5-0.5-0.9-0.7c-0.3-0.2-0.7-0.3-1.2-0.3s-0.8,0.1-1.2,0.3c-0.3,0.2-0.6,0.4-0.8,0.7c-0.2,0.3-0.4,0.6-0.5,0.9
      c-0.1,0.4-0.2,0.7-0.2,1.1s0.1,0.7,0.2,1.1c0.1,0.4,0.3,0.7,0.5,1c0.2,0.3,0.5,0.5,0.9,0.7c0.3,0.2,0.7,0.3,1.2,0.3
      c0.4,0,0.8-0.1,1.2-0.3c0.3-0.2,0.6-0.4,0.9-0.7c0.2-0.3,0.4-0.6,0.5-1C174.5,24.5,174.5,24.1,174.5,23.7z"/>
    <path class="st1" d="M135.7,57.1l-3.5-6.5h-1.3v6.5H127V40.8h6.2c0.8,0,1.5,0.1,2.3,0.2c0.7,0.2,1.4,0.4,2,0.8
      c0.6,0.4,1.1,0.9,1.4,1.5s0.5,1.4,0.5,2.3c0,1.1-0.3,2-0.9,2.8c-0.6,0.8-1.4,1.3-2.5,1.6l4.3,7H135.7z M135.6,45.8
      c0-0.4-0.1-0.7-0.2-0.9c-0.2-0.2-0.4-0.4-0.6-0.6c-0.3-0.1-0.5-0.2-0.9-0.3c-0.3,0-0.6-0.1-0.9-0.1h-2.1v3.8h1.9
      c0.3,0,0.7,0,1-0.1s0.6-0.1,0.9-0.3c0.3-0.1,0.5-0.3,0.7-0.6C135.5,46.6,135.6,46.2,135.6,45.8z"/>
    <path class="st1" d="M149.6,57.1v-6.2c0-0.3,0-0.6-0.1-0.9s-0.1-0.5-0.3-0.8c-0.1-0.2-0.3-0.4-0.5-0.5c-0.2-0.1-0.5-0.2-0.8-0.2
      c-0.7,0-1.2,0.2-1.5,0.7s-0.5,1-0.5,1.7v6.2h-3.8V39.7h3.8v7.4h0c0.3-0.5,0.7-0.9,1.2-1.2s1.2-0.5,2-0.5c0.8,0,1.4,0.1,2,0.4
      s1,0.6,1.3,1.1c0.3,0.4,0.6,0.9,0.7,1.5s0.2,1.1,0.2,1.7v7.1H149.6z"/>
    <path class="st1" d="M161.8,58.8c-0.2,0.6-0.5,1.1-0.8,1.6c-0.3,0.5-0.6,0.9-1,1.2c-0.4,0.3-0.9,0.6-1.4,0.7
      c-0.5,0.2-1.2,0.3-1.9,0.3c-0.4,0-0.7,0-1.1-0.1c-0.4,0-0.7-0.1-1-0.2l0.4-3.2c0.2,0.1,0.4,0.1,0.6,0.1s0.4,0.1,0.6,0.1
      c0.6,0,1-0.1,1.3-0.4c0.3-0.3,0.5-0.6,0.7-1.1l0.4-0.9l-4.8-11.3h4.2l2.6,7.4h0.1l2.3-7.4h4L161.8,58.8z"/>
    <path class="st1" d="M173.4,48.5v4.4c0,0.5,0.1,0.9,0.3,1.2s0.6,0.4,1.1,0.4c0.2,0,0.4,0,0.6,0c0.2,0,0.4-0.1,0.5-0.1l0,2.8
      c-0.3,0.1-0.6,0.2-1,0.2c-0.4,0.1-0.8,0.1-1.2,0.1c-0.8,0-1.4-0.1-1.9-0.3c-0.5-0.2-0.9-0.5-1.3-0.8s-0.5-0.8-0.7-1.3
      c-0.1-0.5-0.2-1.1-0.2-1.7v-4.8h-1.8v-2.8h1.8v-3h3.7v3h2.7v2.8H173.4z"/>
    <path class="st1" d="M185.9,57.1v-6.2c0-0.3,0-0.6-0.1-0.9s-0.1-0.5-0.3-0.8c-0.1-0.2-0.3-0.4-0.5-0.5c-0.2-0.1-0.5-0.2-0.8-0.2
      c-0.7,0-1.2,0.2-1.5,0.7s-0.5,1-0.5,1.7v6.2h-3.8V39.7h3.8v7.4h0c0.3-0.5,0.7-0.9,1.2-1.2s1.2-0.5,2-0.5c0.8,0,1.4,0.1,2,0.4
      s1,0.6,1.3,1.1c0.3,0.4,0.6,0.9,0.7,1.5s0.2,1.1,0.2,1.7v7.1H185.9z"/>
    <path class="st1" d="M206.7,57.1v-6.3c0-0.3,0-0.6-0.1-0.9c0-0.3-0.1-0.6-0.3-0.8c-0.1-0.2-0.3-0.4-0.5-0.5s-0.5-0.2-0.8-0.2
      c-0.3,0-0.6,0.1-0.8,0.2c-0.2,0.1-0.4,0.3-0.6,0.6c-0.2,0.2-0.3,0.5-0.4,0.8c-0.1,0.3-0.1,0.6-0.1,0.9v6.2h-3.8v-6.5
      c0-0.7-0.1-1.2-0.4-1.6c-0.3-0.4-0.7-0.6-1.2-0.6c-0.6,0-1.1,0.2-1.4,0.7c-0.3,0.5-0.5,1.1-0.5,1.7v6.2H192V45.6h3.7v1.6h0
      c0.1-0.2,0.3-0.5,0.5-0.7c0.2-0.2,0.5-0.4,0.7-0.6c0.3-0.2,0.6-0.3,1-0.4s0.8-0.2,1.2-0.2c0.8,0,1.5,0.2,2.1,0.5
      c0.6,0.3,1,0.8,1.3,1.4c0.4-0.6,0.9-1.1,1.5-1.4c0.6-0.4,1.3-0.5,2.2-0.5c0.8,0,1.4,0.1,2,0.4c0.5,0.3,1,0.7,1.3,1.1
      c0.3,0.5,0.6,1,0.7,1.5s0.2,1.1,0.2,1.6v7.1H206.7z"/>
  </g>
</g>
<g class="st4">
  <text transform="matrix(1 0 0 1 127.1777 28.5001)" class="st5"><tspan x="0" y="0" class="st1 st6 st7">A</tspan><tspan x="16.8" y="0" class="st1 st6 st7">l</tspan><tspan x="23.2" y="0" class="st1 st6 st7">g</tspan><tspan x="37.4" y="0" class="st1 st6 st7">o</tspan><tspan x="-1.8" y="27.6" class="st1 st6 st7">R</tspan><tspan x="13.4" y="27.6" class="st1 st6 st7">h</tspan><tspan x="26.7" y="27.6" class="st1 st6 st7">y</tspan><tspan x="40.6" y="27.6" class="st1 st6 st7">t</tspan><tspan x="49.7" y="27.6" class="st1 st6 st7">h</tspan><tspan x="63.4" y="27.6" class="st1 st6 st7">m</tspan></text>
</g>
<use xlink:href="#Logo"  width="135" height="75" id="XMLID_1_" x="-67.5" y="-37.5" transform="matrix(0.75 0 0 -0.75 63.4102 35.125)" style="overflow:visible;"/>
</svg>